<svg viewBox="0 0 50 41" xmlns="http://www.w3.org/2000/svg" data-logo="logo">
            <g transform="translate(0, 0) rotate(0)" id="logogram"><path fill="#F7B602" d="M37.5948 40.783C44.0276 40.6519 49.2001 35.3903 49.2001 28.9218C49.2001 25.776 47.9513 22.7591 45.7284 20.5347L25.9896 0.782959V13.06C25.9896 15.1133 26.8048 17.0825 28.2557 18.5344L32.8796 23.1613L32.8923 23.1737L40.6454 30.9319C40.8972 31.1839 40.8972 31.5924 40.6454 31.8443C40.3936 32.0963 39.9854 32.0963 39.7336 31.8443L37.0611 29.1701H12.3392L9.66668 31.8443C9.4149 32.0963 9.00668 32.0963 8.75489 31.8443C8.5031 31.5924 8.5031 31.1839 8.75489 30.9319L16.508 23.1737L16.5206 23.1613L21.1446 18.5344C22.5955 17.0825 23.4106 15.1133 23.4106 13.06V0.782959L3.67189 20.5347C1.44896 22.7591 0.200134 25.776 0.200134 28.9218C0.200134 35.3903 5.37266 40.6519 11.8055 40.783H37.5948Z"></path></g>
            <g transform="translate(50, 20.5)" id="logotype"></g>
            
          </svg>